<?xml version="1.0" encoding="UTF-8"?>
<svg xmlns="http://www.w3.org/2000/svg" version="1.1" viewBox="0 0 841.89 595.28">
  <!-- Generator: Adobe Illustrator 30.2.1, SVG Export Plug-In . SVG Version: 2.1.1 Build 1)  -->
  <defs>
    <style>
      .st0 {
        font-size: 13px;
      }

      .st0, .st1, .st2, .st3, .st4, .st5, .st6, .st7 {
        fill: #fff;
      }

      .st0, .st1, .st2, .st4, .st5, .st6, .st7 {
        font-family: Impact, Impact;
      }

      .st1 {
        font-size: 6px;
      }

      .st8 {
        fill: #2c2e84;
      }

      .st9 {
        fill: #231f20;
      }

      .st2 {
        font-size: 48px;
      }

      .st10 {
        fill: #939598;
        stroke-width: 3px;
      }

      .st10, .st11 {
        stroke: #fff;
        stroke-miterlimit: 10;
      }

      .st11 {
        fill: none;
      }

      .st12 {
        fill: #be1e2d;
      }

      .st4 {
        font-size: 12px;
      }

      .st5 {
        font-size: 14px;
      }

      .st6 {
        font-size: 10px;
      }

      .st7 {
        font-size: 11px;
      }
    </style>
  </defs>
  <g id="Layer_1">
    <rect class="st9" x="-37.41" y="-8.2" width="880.99" height="623.94"/>
  </g>
  <g id="Layer_8">
    <polygon class="st10" points="672.38 584.62 9.83 585.38 9.06 97.47 673.15 97.47 672.38 584.62"/>
    <g>
      <circle class="st12" cx="406.35" cy="331.02" r="16.2"/>
      <text class="st4" transform="translate(401.45 337.22)"><tspan x="0" y="0">NE</tspan></text>
    </g>
    <g>
      <circle class="st12" cx="406.35" cy="331.02" r="16.2"/>
      <text class="st4" transform="translate(401.45 337.22)"><tspan x="0" y="0">NE</tspan></text>
    </g>
  </g>
  <g id="Layer_2">
    <text class="st2" transform="translate(8.95 89.71)"><tspan x="0" y="0" xml:space="preserve"> 2024 NFL Team Injuries</tspan></text>
  </g>
  <g id="Layer_3">
    <polyline class="st11" points="61.91 98.23 61.91 530.23 672.38 530.49"/>
    <text class="st5" transform="translate(95.81 574.74)"><tspan x="0" y="0">Total Number of Players Injured Per Each Team</tspan></text>
    <text class="st0" transform="translate(26.23 496.98) rotate(-90)"><tspan x="0" y="0">Total Cash Lost From Injured Plauers (Millions)</tspan></text>
    <text class="st7" transform="translate(704.34 326.84)"><tspan x="0" y="0">Circle Size Equals Weeks </tspan><tspan x="7.52" y="13.2">Gone From All Injuries</tspan></text>
    <line class="st11" x1="97.32" y1="536.6" x2="97.32" y2="98.23"/>
    <line class="st11" x1="133.49" y1="536.4" x2="133.49" y2="97.47"/>
    <line class="st11" x1="169.66" y1="536.23" x2="169.66" y2="96.7"/>
    <line class="st11" x1="205.4" y1="536.11" x2="205.4" y2="96.7"/>
    <line class="st11" x1="241.32" y1="536.62" x2="241.32" y2="96.7"/>
    <line class="st11" x1="277.4" y1="536.74" x2="277.4" y2="96.7"/>
    <line class="st11" x1="313.4" y1="536.38" x2="313.4" y2="97.47"/>
    <line class="st11" x1="348.64" y1="536.06" x2="348.64" y2="97.47"/>
    <line class="st11" x1="385.4" y1="536.55" x2="385.4" y2="98.23"/>
    <line class="st11" x1="421.15" y1="536.57" x2="421.15" y2="98.23"/>
    <line class="st11" x1="457.4" y1="536.06" x2="457.4" y2="96.7"/>
    <line class="st11" x1="493.66" y1="536.55" x2="493.66" y2="96.7"/>
    <line class="st11" x1="529.15" y1="536.36" x2="529.15" y2="96.7"/>
    <line class="st11" x1="565.49" y1="536.96" x2="565.49" y2="97.47"/>
    <line class="st11" x1="601.06" y1="536.06" x2="601.06" y2="95.94"/>
    <line class="st11" x1="637.32" y1="536.09" x2="637.32" y2="98.23"/>
    <line class="st11" x1="672.38" y1="493.98" x2="53.49" y2="493.98"/>
    <line class="st11" x1="672.38" y1="457.81" x2="53.49" y2="457.81"/>
    <line class="st11" x1="671.87" y1="421.64" x2="54.26" y2="421.64"/>
    <line class="st11" x1="670.85" y1="385.89" x2="54.26" y2="385.89"/>
    <line class="st11" x1="673.15" y1="349.98" x2="54.26" y2="349.98"/>
    <line class="st11" x1="671.36" y1="277.89" x2="54.68" y2="277.89"/>
    <line class="st11" x1="673.91" y1="242.66" x2="54.98" y2="243.47"/>
    <line class="st11" x1="673.91" y1="205.89" x2="54.26" y2="205.89"/>
    <line class="st11" x1="673.91" y1="170.15" x2="53.49" y2="170.15"/>
    <line class="st11" x1="672.38" y1="133.89" x2="54.26" y2="133.89"/>
  </g>
  <g id="Layer_5">
    <text class="st6" transform="translate(94.79 549.52)"><tspan x="0" y="0">2</tspan></text>
    <text class="st6" transform="translate(131.23 549.52)"><tspan x="0" y="0">4</tspan></text>
    <text class="st6" transform="translate(167.09 550.27)"><tspan x="0" y="0">6</tspan></text>
    <text class="st6" transform="translate(203.21 549.82)"><tspan x="0" y="0">8</tspan></text>
    <text class="st6" transform="translate(237.32 550.29)"><tspan x="0" y="0">10</tspan></text>
    <text class="st6" transform="translate(272.68 549.32)"><tspan x="0" y="0">12</tspan></text>
    <text class="st6" transform="translate(308.39 548.88)"><tspan x="0" y="0">14</tspan></text>
    <text class="st6" transform="translate(344.28 549.34)"><tspan x="0" y="0">16</tspan></text>
    <text class="st6" transform="translate(380.27 549.89)"><tspan x="0" y="0">18</tspan></text>
    <text class="st6" transform="translate(416.67 549.17)"><tspan x="0" y="0">20</tspan></text>
    <text class="st6" transform="translate(453.73 549.26)"><tspan x="0" y="0">22</tspan></text>
    <text class="st6" transform="translate(489.78 548.33)"><tspan x="0" y="0">24</tspan></text>
    <text class="st6" transform="translate(524.88 549.86)"><tspan x="0" y="0">26</tspan></text>
    <text class="st6" transform="translate(560.68 549.68)"><tspan x="0" y="0">28</tspan></text>
    <text class="st6" transform="translate(596.07 549.64)"><tspan x="0" y="0">30</tspan></text>
    <text class="st6" transform="translate(48.6 495.25) rotate(-90)"><tspan x="0" y="0">2</tspan></text>
    <text class="st6" transform="translate(48.6 459.82) rotate(-90)"><tspan x="0" y="0">4</tspan></text>
    <text class="st6" transform="translate(49.36 423.95) rotate(-90)"><tspan x="0" y="0">6</tspan></text>
    <text class="st6" transform="translate(48.9 387.84) rotate(-90)"><tspan x="0" y="0">8</tspan></text>
    <text class="st6" transform="translate(49.37 353.73) rotate(-90)"><tspan x="0" y="0">10</tspan></text>
    <text class="st6" transform="translate(48.4 318.37) rotate(-90)"><tspan x="0" y="0">12</tspan></text>
    <text class="st6" transform="translate(47.97 282.65) rotate(-90)"><tspan x="0" y="0">14</tspan></text>
    <text class="st6" transform="translate(48.42 246.77) rotate(-90)"><tspan x="0" y="0">16</tspan></text>
    <text class="st6" transform="translate(48.97 210.78) rotate(-90)"><tspan x="0" y="0">18</tspan></text>
    <text class="st6" transform="translate(48.25 174.38) rotate(-90)"><tspan x="0" y="0">20</tspan></text>
    <text class="st6" transform="translate(48.34 137.32) rotate(-90)"><tspan x="0" y="0">22</tspan></text>
    <text class="st6" transform="translate(631.97 548.46)"><tspan x="0" y="0">32</tspan></text>
  </g>
  <g id="Layer_4">
    <text/>
    <g>
      <circle class="st12" cx="619.95" cy="280.45" r="27"/>
      <text class="st4" transform="translate(611.56 285.04)"><tspan x="0" y="0">CLE</tspan></text>
    </g>
    <g>
      <circle class="st8" cx="493.03" cy="247.07" r="21.6"/>
      <text class="st4" transform="translate(483.62 252.38)"><tspan x="0" y="0">CAR</tspan></text>
    </g>
    <g>
      <circle class="st8" cx="528.86" cy="278.47" r="16.2"/>
      <text class="st4" transform="translate(519.53 283.45)"><tspan x="0" y="0">NYG</tspan></text>
    </g>
    <g>
      <circle class="st12" cx="457.43" cy="142.49" r="27"/>
      <text class="st4" transform="translate(450.62 147.66)"><tspan x="0" y="0">PIT</tspan></text>
    </g>
    <g>
      <circle class="st12" cx="350.68" cy="245.38" r="16.2"/>
      <text class="st4" transform="translate(345.68 250.78)"><tspan x="0" y="0">LV</tspan></text>
    </g>
    <g>
      <circle class="st12" cx="385.66" cy="174.66" r="21.6"/>
      <text class="st4" transform="translate(377.48 180.93)"><tspan x="0" y="0">IND</tspan></text>
    </g>
    <g>
      <circle class="st12" cx="473.77" cy="206.97" r="27"/>
      <text class="st4" transform="translate(465.63 211.86)"><tspan x="0" y="0">MIA</tspan></text>
    </g>
    <g>
      <line class="st11" x1="672.89" y1="313.89" x2="54" y2="313.89"/>
      <circle class="st12" cx="439.06" cy="315.63" r="21.6"/>
      <text class="st4" transform="translate(431.95 321.58)"><tspan x="0" y="0">NYJ</tspan></text>
    </g>
    <g>
      <circle class="st8" cx="425.19" cy="354.66" r="21.6"/>
      <text class="st4" transform="translate(418.31 359.75)"><tspan x="0" y="0">NO</tspan></text>
    </g>
    <g>
      <circle class="st12" cx="366.69" cy="295.62" r="16.2"/>
      <text class="st4" transform="translate(360.98 301.82)"><tspan x="0" y="0">KC</tspan></text>
    </g>
    <g>
      <circle class="st8" cx="548.3" cy="151.68" r="21.6"/>
      <text class="st4" transform="translate(542.47 158.13)"><tspan x="0" y="0">SF</tspan></text>
    </g>
    <g>
      <circle class="st8" cx="404.34" cy="296.09" r="16.2"/>
      <text class="st4" transform="translate(396.08 300.78)"><tspan x="0" y="0">LAR</tspan></text>
    </g>
    <g>
      <circle class="st8" cx="456.87" cy="173.95" r="16.2"/>
      <text class="st4" transform="translate(448.69 178.69)"><tspan x="0" y="0">DAL</tspan></text>
    </g>
    <g>
      <circle class="st8" cx="420.05" cy="245.54" r="21.6"/>
      <text class="st4" transform="translate(411.32 251.56)"><tspan x="0" y="0">ARI</tspan></text>
    </g>
    <g>
      <circle class="st8" cx="509.4" cy="193.32" r="27"/>
      <text class="st4" transform="translate(501.53 198.49)"><tspan x="0" y="0">DET</tspan></text>
    </g>
    <g>
      <circle class="st8" cx="385.77" cy="124.51" r="21.6"/>
      <text class="st4" transform="translate(379.55 129.27)"><tspan x="0" y="0">TB</tspan></text>
    </g>
    <circle class="st3" cx="761.38" cy="529.6" r="27"/>
    <circle class="st3" cx="761.15" cy="465.79" r="21.6"/>
    <circle class="st3" cx="761.38" cy="410.53" r="16.2"/>
    <circle class="st3" cx="761.38" cy="367.71" r="10.8"/>
    <g>
      <circle class="st12" cx="408.35" cy="328.02" r="16.2"/>
      <text class="st4" transform="translate(403.45 334.22)"><tspan x="0" y="0">NE</tspan></text>
    </g>
    <g>
      <circle class="st8" cx="295.23" cy="329.79" r="10.8"/>
      <text class="st7" transform="translate(285.43 334.59)"><tspan x="0" y="0">WAS</tspan></text>
    </g>
    <g>
      <circle class="st8" cx="348" cy="375.21" r="16.2"/>
      <text class="st4" transform="translate(341.02 380.48)"><tspan x="0" y="0">ATL</tspan></text>
    </g>
    <g>
      <circle class="st8" cx="330.77" cy="315.85" r="16.2"/>
      <text class="st4" transform="translate(322.33 321.05)"><tspan x="0" y="0">MIN</tspan></text>
    </g>
    <g>
      <circle class="st12" cx="403.68" cy="360.09" r="16.2"/>
      <text class="st4" transform="translate(396.22 366.29)"><tspan x="0" y="0">CIN</tspan></text>
    </g>
    <g>
      <circle class="st8" cx="384.68" cy="423.95" r="16.2"/>
      <text class="st4" transform="translate(376.13 428.73)"><tspan x="0" y="0">SEA</tspan></text>
    </g>
    <g>
      <circle class="st8" cx="241.66" cy="432.28" r="10.8"/>
      <text class="st4" transform="translate(235.54 437.2)"><tspan x="0" y="0">GB</tspan></text>
    </g>
    <g>
      <circle class="st12" cx="476.82" cy="314.31" r="21.6"/>
      <text class="st4" transform="translate(467.05 320.58)"><tspan x="0" y="0">HOU</tspan></text>
    </g>
    <g>
      <circle class="st12" cx="295.49" cy="423.78" r="16.2"/>
      <text class="st4" transform="translate(286.69 428.05)"><tspan x="0" y="0">BAL</tspan></text>
    </g>
    <g>
      <circle class="st12" cx="222.26" cy="424.11" r="10.8"/>
      <text class="st4" transform="translate(212.99 429.03)"><tspan x="0" y="0">BUF</tspan></text>
    </g>
    <g>
      <circle class="st12" cx="403.71" cy="381.59" r="16.2"/>
      <text class="st4" transform="translate(396.18 388.86)"><tspan x="0" y="0">LAC</tspan></text>
    </g>
    <text/>
    <g>
      <circle class="st12" cx="295.16" cy="275.54" r="10.8"/>
      <text class="st4" transform="translate(286.74 280.46)"><tspan x="0" y="0">JAX</tspan></text>
    </g>
    <g>
      <circle class="st12" cx="295.37" cy="346.96" r="10.8"/>
      <text class="st7" transform="translate(287.38 351.77)"><tspan x="0" y="0">DEN</tspan></text>
    </g>
    <g>
      <circle class="st8" cx="347.87" cy="423.77" r="10.8"/>
      <text class="st4" transform="translate(340.3 428.69)"><tspan x="0" y="0">PHI</tspan></text>
    </g>
    <text class="st6" transform="translate(747.12 353.06)"><tspan x="0" y="0">87-135</tspan></text>
    <text class="st6" transform="translate(745.73 389.98)"><tspan x="0" y="0">136-185</tspan></text>
    <text class="st6" transform="translate(744.3 440.14)"><tspan x="0" y="0">186-230</tspan></text>
    <text class="st6" transform="translate(744.57 499.67)"><tspan x="0" y="0">231-273</tspan></text>
    <g>
      <circle class="st12" cx="386.1" cy="328.16" r="16.2"/>
      <text class="st4" transform="translate(378.43 334.36)"><tspan x="0" y="0">TEN</tspan></text>
    </g>
    <g>
      <circle class="st8" cx="363.23" cy="329.55" r="16.2"/>
      <text class="st4" transform="translate(354.4 335.42)"><tspan x="0" y="0">CHI</tspan></text>
    </g>
  </g>
  <g id="AFC">
    <text/>
    <g>
      <circle class="st12" cx="797.31" cy="110.69" r="10.8"/>
      <text class="st7" transform="translate(704.95 115.97)"><tspan x="0" y="0">AFC Conference</tspan></text>
    </g>
    <text class="st1" transform="translate(681.04 132.62)"><tspan x="0" y="0">NE-New England Patriots</tspan><tspan x="0" y="7.2">BUF-Buffalo Bills</tspan><tspan x="0" y="14.4">MIA-Miami Dolphins</tspan><tspan x="0" y="21.6">NYJ-New York Jets</tspan><tspan x="0" y="28.8">PIT-Pittsburgh Steelers</tspan><tspan x="0" y="36">BAL- Baltimore Ravens</tspan><tspan x="0" y="43.2">CIN-Cincinnati Bengals</tspan><tspan x="0" y="50.4">CLE- Cleveland Browns</tspan></text>
    <text class="st1" transform="translate(770.05 133.31)"><tspan x="0" y="0">IND- Indianapolis Colts</tspan><tspan x="0" y="7.2">JAX- Jacksonville Jaguars</tspan><tspan x="0" y="14.4">HOU-Houston Texans</tspan><tspan x="0" y="21.6">TEN- Tennessee Titans</tspan><tspan x="0" y="28.8">DEN-Denver Broncos</tspan><tspan x="0" y="36">LAC-Los Angeles Chargers</tspan><tspan x="0" y="43.2">KC-Kansas City Chiefs</tspan><tspan x="0" y="50.4">LV- Las Vegas Raiders</tspan></text>
    <text class="st7" transform="translate(705.67 223.88)"><tspan x="0" y="0">NFC Conference</tspan></text>
    <g>
      <circle class="st8" cx="797.89" cy="218.64" r="10.8"/>
      <text class="st1" transform="translate(680.81 241.82)"><tspan x="0" y="0">PHI-Philiadelphia Eagles</tspan><tspan x="0" y="7.2">DAL-Dallas Cowboys</tspan><tspan x="0" y="14.4">WAS-Washington Commanders</tspan><tspan x="0" y="21.6">NYG-New York Giants</tspan><tspan x="0" y="28.8">GB-Green Bay Packers</tspan><tspan x="0" y="36">DET-Detroit Lions</tspan><tspan x="0" y="43.2">CHI-Chicago Bears</tspan><tspan x="0" y="50.4">MIN-Minnesota Vikings</tspan></text>
      <text class="st1" transform="translate(772.24 242.16)"><tspan x="0" y="0">TB- Tampa Bay Buccaneers</tspan><tspan x="0" y="7.2">CAR- Carolina Panthers</tspan><tspan x="0" y="14.4">ATL-Atlanta Falcons</tspan><tspan x="0" y="21.6">NO-New Orleans</tspan><tspan x="0" y="28.8">SEA-Seattle Seahawks</tspan><tspan x="0" y="36">LAR-Los Angeles Rams</tspan><tspan x="0" y="43.2">SF-San Francisco 49ers</tspan><tspan x="0" y="50.4">ARI- Arizona Cardinals</tspan></text>
    </g>
  </g>
</svg>